<svg width="27" height="27" viewBox="0 0 27 27" fill="none" xmlns="http://www.w3.org/2000/svg">
<circle cx="13.32" cy="13.32" r="13.32" fill="url(#paint0_linear_1456_11816)"/>
<path d="M15.4506 6.97406C15.8583 7.09397 16.0982 7.50166 15.9782 7.90935L12.9086 18.6532C12.7887 19.0609 12.381 19.3007 11.9733 19.1808C11.5656 19.0609 11.3258 18.6532 11.4457 18.2455L14.5154 7.50166C14.6353 7.09397 15.043 6.85416 15.4506 6.97406ZM17.3932 9.85187C17.6809 9.54011 18.1846 9.54011 18.4723 9.85187L21.1583 12.5378C21.4701 12.8256 21.4701 13.3292 21.1583 13.617L18.4723 16.303C18.1846 16.6147 17.6809 16.6147 17.3932 16.303C17.0814 16.0152 17.0814 15.5116 17.3932 15.2238L19.5275 13.0654L17.3932 10.9311C17.0814 10.6433 17.0814 10.1397 17.3932 9.85187ZM10.0308 9.85187C10.3425 10.1397 10.3425 10.6433 10.0308 10.9311L7.8964 13.0654L10.0308 15.2238C10.3425 15.5116 10.3425 16.0152 10.0308 16.303C9.74299 16.6147 9.23938 16.6147 8.9516 16.303L6.26564 13.617C5.95388 13.3292 5.95388 12.8256 6.26564 12.5378L8.9516 9.85187C9.23938 9.54011 9.74299 9.54011 10.0308 9.85187Z" fill="#3FEFC5"/>
<defs>
<linearGradient id="paint0_linear_1456_11816" x1="21.5" y1="-0.180175" x2="13" y2="13.8198" gradientUnits="userSpaceOnUse">
<stop stop-color="#2A747E"/>
<stop offset="1" stop-color="#181739"/>
</linearGradient>
</defs>
</svg>
