<svg width="27" height="27" viewBox="0 0 27 27" fill="none" xmlns="http://www.w3.org/2000/svg">
<circle cx="13.32" cy="13.32" r="13.32" fill="url(#paint0_linear_1456_11814)"/>
<path d="M20 16.0165L18.96 14.9924L17.1213 16.9277L16.2784 16.0977L17.7942 14.605L16.7543 13.5808L15.2384 15.0736L12.7679 12.6408L12.9922 12.1794C13.6622 10.7968 13.3746 9.14111 12.2773 8.0605C10.8416 6.64674 8.5086 6.64674 7.07511 8.05906C5.64163 9.47065 5.64163 11.7687 7.07511 13.1803C8.17247 14.2609 9.85382 14.5441 11.2579 13.8843L11.7264 13.6634L18.1613 20L19.2013 18.9759L18.1613 17.9518L20 16.0165ZM11.2358 12.1562C10.3753 13.0036 8.97564 13.0036 8.11511 12.1562C7.25457 11.3088 7.25457 9.93055 8.11511 9.08316C8.97564 8.23578 10.3753 8.23578 11.2358 9.08316C12.0956 9.93055 12.0956 11.3088 11.2358 12.1562Z" fill="white"/>
<defs>
<linearGradient id="paint0_linear_1456_11814" x1="23.5" y1="-0.180176" x2="13" y2="18.3198" gradientUnits="userSpaceOnUse">
<stop stop-color="#EC77FF"/>
<stop offset="1" stop-color="#9548A1"/>
</linearGradient>
</defs>
</svg>
